<svg xmlns="http://www.w3.org/2000/svg" width="24" height="24" viewBox="0 0 24 24" fill="none" stroke="none"
     stroke-width="2" stroke-linecap="round" stroke-linejoin="round" class="feather feather-list">
    <path fill-rule="evenodd" clip-rule="evenodd"
          d="M13.418 3.27843L15.2085 9.35355L18.4033 2.95859C18.6968 2.10187 19.3611 1.4035 20.2644 1.12675C21.8012 0.655972 23.448 1.58354 23.9428 3.19853C24.1841 3.98633 24.1067 4.79218 23.7858 5.46565L23.8097 5.47912L17.3606 18.3885C17.3029 18.558 17.228 18.724 17.1354 18.8844C16.3318 20.2763 14.4945 20.7201 13.0317 19.8755C12.3182 19.4635 11.8256 18.8211 11.6014 18.1096L11.5747 18.116L9.69421 11.736L6.26071 18.6089L6.22685 18.5898C5.87389 19.162 5.33021 19.6079 4.65157 19.8158C3.11483 20.2865 1.46798 19.359 0.973226 17.744C0.682381 16.7946 0.85442 15.819 1.35782 15.0804L7.41349 2.95864C7.43957 2.88251 7.46859 2.80763 7.50044 2.73419C7.56223 2.50205 7.65498 2.27489 7.78023 2.05795C8.58385 0.666048 10.4211 0.22232 11.8839 1.06686C12.744 1.56341 13.2831 2.39474 13.418 3.27843ZM24.8315 17.259C24.8315 18.9481 23.5286 20.3174 21.9214 20.3174C20.3141 20.3174 19.0112 18.9481 19.0112 17.259C19.0112 15.57 20.3141 14.2007 21.9214 14.2007C23.5286 14.2007 24.8315 15.57 24.8315 17.259Z"
          fill="currentColor"/>
</svg>
